<svg width="154.64mm" height="49.784mm" version="1.1" viewBox="0 0 154.64 49.784" xmlns="http://www.w3.org/2000/svg" xmlns:xlink="http://www.w3.org/1999/xlink">
 <defs>
  <linearGradient id="linearGradient7187">
   <stop stop-color="#f200cf" offset="0"/>
   <stop stop-color="#ff278f" offset="1"/>
  </linearGradient>
  <linearGradient id="linearGradient1488" x1="362.33" x2="390.12" y1="1070.1" y2="1070.1" gradientTransform="translate(-332.85 -997.27)" gradientUnits="userSpaceOnUse" xlink:href="#linearGradient7187"/>
  <linearGradient id="linearGradient1490" x1="362.33" x2="390.12" y1="1070.1" y2="1070.1" gradientTransform="translate(-332.85 -997.27)" gradientUnits="userSpaceOnUse" xlink:href="#linearGradient7187"/>
 </defs>
 <g transform="translate(-29.478 -47.388)">
  <g stroke-width="5">
   <g fill="#f9f9f9" aria-label="vulnlog">
    <path d="m40.045 85.488h6.7056l10.516-25.4h-6.5024l-7.366 18.085-7.4168-18.085h-6.5024z" fill-opacity="0"/>
    <g fill="#1a1a1a" stroke-width="5">
     <path d="m58.325 60.088v15.291c0 6.4516 4.064 10.617 9.9568 10.617 2.9972 0 5.7404-1.27 7.62-3.2512v2.7432h5.9944v-25.4h-5.9944v13.716c0 3.9624-2.6924 6.5532-6.1468 6.5532-3.2004 0-5.4356-2.032-5.4356-6.2484v-14.021z"/>
     <path d="m91.489 47.388h-5.9944v38.1h5.9944z"/>
     <path d="m101.08 85.488v-13.716c0-4.0132 2.6924-6.5532 6.1468-6.5532 3.2004 0 5.4356 1.9812 5.4356 6.2484v14.021h5.9944v-15.291c0-6.4516-4.064-10.617-9.9568-10.617-2.9972 0-5.7404 1.27-7.62 3.2512v-2.7432h-5.9944v25.4z"/>
     <path d="m128.25 47.388h-5.9944v38.1h5.9944z"/>
     <path d="m143.54 59.58c-7.2644 0-13.208 5.8928-13.208 13.208 0 7.2644 5.9436 13.208 13.208 13.208 7.3152 0 13.208-5.9436 13.208-13.208 0-7.3152-5.8928-13.208-13.208-13.208zm-7.2136 13.208c0-3.9624 3.2512-7.2136 7.2136-7.2136s7.2136 3.2512 7.2136 7.2136-3.2512 7.2136-7.2136 7.2136-7.2136-3.2512-7.2136-7.2136z"/>
     <path d="m157.7 72.788c0 7.2644 5.334 13.208 12.598 13.208 3.2004 0 6.1468-1.6764 7.8232-3.7592v3.1496c0 3.81-2.7432 6.096-7.4676 6.096-2.4892 0-5.1816-0.9144-7.1628-2.5908l-4.1656 4.1656c2.9972 2.7432 7.2136 4.1148 11.227 4.1148 8.4328 0 13.564-4.6228 13.564-12.192v-24.892h-5.9944v3.1496c-1.6764-1.9812-4.6228-3.6576-7.8232-3.6576-7.2644 0-12.598 5.9436-12.598 13.208zm13.208-7.2136c3.9624 0 7.2136 3.2512 7.2136 7.2136s-3.2512 7.2136-7.2136 7.2136-7.2136-3.2512-7.2136-7.2136 3.2512-7.2136 7.2136-7.2136z"/>
    </g>
   </g>
   <path d="m44.734 74.91-4.2824 10.581h6.305l10.516-25.4h-6.5024z" fill="url(#linearGradient1488)"/>
   <path d="m29.485 60.091 9.0005 21.636 3.1662-7.8238-5.6642-13.812z" fill="url(#linearGradient1490)"/>
   <path d="m40.045 85.488h6.7056l10.516-25.4h-6.5024l-7.366 18.085-7.4168-18.085h-6.5024z" fill-opacity="0"/>
  </g>
  <path class="fill-colour" d="m85.495 47.388v38.1h5.9945v-38.1zm36.763 0v38.1h5.9945v-38.1zm-13.556 12.192c-2.9972 0-5.7401 1.2698-7.6197 3.251v-2.743h-5.9945v25.4h5.9945v-13.716c0-4.0132 2.6925-6.5531 6.1469-6.5531 3.2004 0 5.4353 1.981 5.4353 6.2482v14.021h5.9945v-15.291c0-6.4516-4.0642-10.617-9.957-10.617zm34.833 0c-7.2644 0-13.208 5.8928-13.208 13.208 0 7.2644 5.9436 13.208 13.208 13.208 7.3152 0 13.208-5.9436 13.208-13.208 0-7.3152-5.8928-13.208-13.208-13.208zm26.764 0c-7.2644 0-12.598 5.9436-12.598 13.208s5.3338 13.208 12.598 13.208c3.2004 0 6.1469-1.6761 7.8233-3.7589v3.1492c0 3.81-2.7434 6.0963-7.4678 6.0963-2.4892 0-5.1817-0.91466-7.1629-2.5911l-4.1656 4.1656c2.9972 2.7432 7.2135 4.115 11.227 4.115 8.4328 0 13.564-4.6228 13.564-12.192v-24.892h-5.9945v3.1497c-1.6764-1.9812-4.6229-3.6577-7.8233-3.6577zm-111.97 0.50798v15.291c0 6.4516 4.0637 10.617 9.9565 10.617 2.9972 0 5.7406-1.2698 7.6202-3.251v2.743h5.9945v-25.4h-5.9945v13.716c0 3.9624-2.6925 6.5531-6.1469 6.5531-3.2004 0-5.4353-2.0318-5.4353-6.2482v-14.021zm85.21 5.4865c3.9624 0 7.2135 3.2511 7.2135 7.2135s-3.2511 7.2135-7.2135 7.2135c-3.9624 0-7.2135-3.2511-7.2135-7.2135s3.2511-7.2135 7.2135-7.2135zm27.374 0c3.9624 0 7.2135 3.2511 7.2135 7.2135s-3.2511 7.2135-7.2135 7.2135c-3.9624 0-7.214-3.2511-7.214-7.2135s3.2516-7.2135 7.214-7.2135z" stroke-width="5"/>
 </g>
</svg>
