<svg width="85.189mm" height="27.426mm" version="1.1" viewBox="0 0 85.189 27.426" xmlns="http://www.w3.org/2000/svg" xmlns:xlink="http://www.w3.org/1999/xlink">
    <defs>
        <linearGradient id="a">
            <stop stop-color="#f200cf" offset="0"/>
            <stop stop-color="#ff278f" offset="1"/>
        </linearGradient>
        <linearGradient id="b" x1="362.33" x2="390.12" y1="1070.1" y2="1070.1" gradientUnits="userSpaceOnUse" xlink:href="#a"/>
    </defs>
    <g transform="translate(-613.41 -1236.1)">
        <g transform="matrix(.55089 0 0 .55089 278.14 708.13)" stroke-width="5">
            <g fill="#f9f9f9" aria-label="vulnlog">
                <path d="m619.16 996.47h6.7056l10.516-25.4h-6.5024l-7.366 18.085-7.4168-18.085h-6.5024z" fill-opacity="0"/>
                <path d="m637.44 971.07v15.291c0 6.4516 4.064 10.617 9.9568 10.617 2.9972 0 5.7404-1.27 7.62-3.2512v2.7432h5.9944v-25.4h-5.9944v13.716c0 3.9624-2.6924 6.5532-6.1468 6.5532-3.2004 0-5.4356-2.032-5.4356-6.2484v-14.021z" fill="#1a1a1a" stroke-width="5"/>
                <path d="m670.61 958.37h-5.9944v38.1h5.9944z" fill="#1a1a1a" stroke-width="5"/>
                <path d="m680.2 996.47v-13.716c0-4.0132 2.6924-6.5532 6.1468-6.5532 3.2004 0 5.4356 1.9812 5.4356 6.2484v14.021h5.9944v-15.291c0-6.4516-4.064-10.617-9.9568-10.617-2.9972 0-5.7404 1.27-7.62 3.2512v-2.7432h-5.9944v25.4z" fill="#1a1a1a" stroke-width="5"/>
                <path d="m707.37 958.37h-5.9944v38.1h5.9944z" fill="#1a1a1a" stroke-width="5"/>
                <path d="m722.65 970.56c-7.2644 0-13.208 5.8928-13.208 13.208 0 7.2644 5.9436 13.208 13.208 13.208 7.3152 0 13.208-5.9436 13.208-13.208 0-7.3152-5.8928-13.208-13.208-13.208zm-7.2136 13.208c0-3.9624 3.2512-7.2136 7.2136-7.2136s7.2136 3.2512 7.2136 7.2136-3.2512 7.2136-7.2136 7.2136-7.2136-3.2512-7.2136-7.2136z" fill="#1a1a1a" stroke-width="5"/>
                <path d="m736.82 983.77c0 7.2644 5.334 13.208 12.598 13.208 3.2004 0 6.1468-1.6764 7.8232-3.7592v3.1496c0 3.81-2.7432 6.096-7.4676 6.096-2.4892 0-5.1816-0.9144-7.1628-2.5908l-4.1656 4.1656c2.9972 2.7432 7.2136 4.1148 11.227 4.1148 8.4328 0 13.564-4.6228 13.564-12.192v-24.892h-5.9944v3.1496c-1.6764-1.9812-4.6228-3.6576-7.8232-3.6576-7.2644 0-12.598 5.9436-12.598 13.208zm13.208-7.2136c3.9624 0 7.2136 3.2512 7.2136 7.2136s-3.2512 7.2136-7.2136 7.2136-7.2136-3.2512-7.2136-7.2136 3.2512-7.2136 7.2136-7.2136z" fill="#1a1a1a" stroke-width="5"/>
            </g>
            <g transform="translate(246.27 -86.29)" fill="url(#b)">
                <path d="m377.58 1072.2-4.2824 10.581h6.305l10.516-25.4h-6.5024z"/>
                <path d="m362.33 1057.4 9.0005 21.636 3.1662-7.8238-5.6642-13.812z"/>
            </g>
            <g fill="#f9f9f9" aria-label="vulnlog">
                <path d="m619.16 996.47h6.7056l10.516-25.4h-6.5024l-7.366 18.085-7.4168-18.085h-6.5024z" fill-opacity="0"/>
                <path d="m637.44 971.07v15.291c0 6.4516 4.064 10.617 9.9568 10.617 2.9972 0 5.7404-1.27 7.62-3.2512v2.7432h5.9944v-25.4h-5.9944v13.716c0 3.9624-2.6924 6.5532-6.1468 6.5532-3.2004 0-5.4356-2.032-5.4356-6.2484v-14.021z" fill="#000"/>
                <path d="m670.61 958.37h-5.9944v38.1h5.9944z" fill="#000"/>
                <path d="m680.2 996.47v-13.716c0-4.0132 2.6924-6.5532 6.1468-6.5532 3.2004 0 5.4356 1.9812 5.4356 6.2484v14.021h5.9944v-15.291c0-6.4516-4.064-10.617-9.9568-10.617-2.9972 0-5.7404 1.27-7.62 3.2512v-2.7432h-5.9944v25.4z" fill="#000"/>
                <path d="m707.37 958.37h-5.9944v38.1h5.9944z" fill="#000"/>
                <path d="m722.65 970.56c-7.2644 0-13.208 5.8928-13.208 13.208 0 7.2644 5.9436 13.208 13.208 13.208 7.3152 0 13.208-5.9436 13.208-13.208 0-7.3152-5.8928-13.208-13.208-13.208zm-7.2136 13.208c0-3.9624 3.2512-7.2136 7.2136-7.2136s7.2136 3.2512 7.2136 7.2136-3.2512 7.2136-7.2136 7.2136-7.2136-3.2512-7.2136-7.2136z" fill="#000"/>
                <path d="m736.82 983.77c0 7.2644 5.334 13.208 12.598 13.208 3.2004 0 6.1468-1.6764 7.8232-3.7592v3.1496c0 3.81-2.7432 6.096-7.4676 6.096-2.4892 0-5.1816-0.9144-7.1628-2.5908l-4.1656 4.1656c2.9972 2.7432 7.2136 4.1148 11.227 4.1148 8.4328 0 13.564-4.6228 13.564-12.192v-24.892h-5.9944v3.1496c-1.6764-1.9812-4.6228-3.6576-7.8232-3.6576-7.2644 0-12.598 5.9436-12.598 13.208zm13.208-7.2136c3.9624 0 7.2136 3.2512 7.2136 7.2136s-3.2512 7.2136-7.2136 7.2136-7.2136-3.2512-7.2136-7.2136 3.2512-7.2136 7.2136-7.2136z" fill="#000"/>
            </g>
            <g fill="#f9f9f9" aria-label="vulnlog">
                <path d="m619.16 996.47h6.7056l10.516-25.4h-6.5024l-7.366 18.085-7.4168-18.085h-6.5024z" fill-opacity="0"/>
                <path d="m637.44 971.07v15.291c0 6.4516 4.064 10.617 9.9568 10.617 2.9972 0 5.7404-1.27 7.62-3.2512v2.7432h5.9944v-25.4h-5.9944v13.716c0 3.9624-2.6924 6.5532-6.1468 6.5532-3.2004 0-5.4356-2.032-5.4356-6.2484v-14.021z" fill="#000"/>
                <path d="m670.61 958.37h-5.9944v38.1h5.9944z" fill="#000"/>
                <path d="m680.2 996.47v-13.716c0-4.0132 2.6924-6.5532 6.1468-6.5532 3.2004 0 5.4356 1.9812 5.4356 6.2484v14.021h5.9944v-15.291c0-6.4516-4.064-10.617-9.9568-10.617-2.9972 0-5.7404 1.27-7.62 3.2512v-2.7432h-5.9944v25.4z" fill="#000"/>
                <path d="m707.37 958.37h-5.9944v38.1h5.9944z" fill="#000"/>
                <path d="m722.65 970.56c-7.2644 0-13.208 5.8928-13.208 13.208 0 7.2644 5.9436 13.208 13.208 13.208 7.3152 0 13.208-5.9436 13.208-13.208 0-7.3152-5.8928-13.208-13.208-13.208zm-7.2136 13.208c0-3.9624 3.2512-7.2136 7.2136-7.2136s7.2136 3.2512 7.2136 7.2136-3.2512 7.2136-7.2136 7.2136-7.2136-3.2512-7.2136-7.2136z" fill="#000"/>
                <path d="m736.82 983.77c0 7.2644 5.334 13.208 12.598 13.208 3.2004 0 6.1468-1.6764 7.8232-3.7592v3.1496c0 3.81-2.7432 6.096-7.4676 6.096-2.4892 0-5.1816-0.9144-7.1628-2.5908l-4.1656 4.1656c2.9972 2.7432 7.2136 4.1148 11.227 4.1148 8.4328 0 13.564-4.6228 13.564-12.192v-24.892h-5.9944v3.1496c-1.6764-1.9812-4.6228-3.6576-7.8232-3.6576-7.2644 0-12.598 5.9436-12.598 13.208zm13.208-7.2136c3.9624 0 7.2136 3.2512 7.2136 7.2136s-3.2512 7.2136-7.2136 7.2136-7.2136-3.2512-7.2136-7.2136 3.2512-7.2136 7.2136-7.2136z" fill="#000"/>
            </g>
        </g>
    </g>
</svg>
